<?xml version="1.0" encoding="UTF-8"?><svg id="a" xmlns="http://www.w3.org/2000/svg" viewBox="0 0 787.64 175.85"><g id="b"><path d="m101.6,86.78s42.43-27.33,42.43-66.6v-10.14h-47.99c-4.67-4.24-15.2-8.75-24.1-9.54C66.61-.38,6.88.2,0,.05v54.6h30.01c.09-3.9,1.74-7.54,3.85-10.83,2.42-3.51,5.49-5.83,9.71-7.77,8.01-3.55,21.68-3.92,30.05-.84,3.67,1.37,6.44,3.3,8.31,5.79,3.83,5.05,3.69,12.62-.19,17.87-1.86,2.72-5.91,6.23-10.27,9.16C48.55,82.61,22.95,98.87,0,113.45v30.58l72.02-10.86,72.02,10.86v-30.15c-12.63-8.09-29.81-19.09-42.33-27.1"/></g><g id="c"><path id="d" d="m278.67,9.76v31.27h-99.34l17.69-17.69v120.42h-36.99V9.76h118.64Zm-100.59,54.85h97.2v31.27h-97.2v-31.27Z"/><path id="e" d="m353.19,146.39c-23.22.01-44.54-7.26-57.07-25.59-10.99-15.67-10.89-40.92,0-56.45,23.67-34.69,90.41-34.64,114.15,0,10.9,15.53,10.99,40.78,0,56.45-12.46,18.27-34.03,25.61-57.07,25.59Zm0-26.93c23.84,1.02,34.66-21.69,24.97-41.29-9.43-16.84-40.64-16.74-50.12,0-9.76,19.81,1.28,42.3,25.15,41.29Z"/><path id="f" d="m428.28,41.69h37.1l6.06,36.38v65.46h-36.38v-67.6l-6.78-34.24Zm90.96-1.61v31.03c-25.21-5.71-48.37-.34-47.8,30.5l-6.95-8.56c3.72-31.65,17.63-61.92,54.76-52.97Z"/><path id="g" d="m574.89,132.83c-27.15.77-50.68-19.26-49.94-47.09-1.02-44.7,54.25-60.28,85.43-35.05,11.03,8.66,20.7,21.83,21.4,35.4-2,26.68-29.89,47.48-56.9,46.73Zm43.7-14.98v-17.3l1.25-4.28v-24.97l-1.25-3.75v-25.86h36.39s0,74.73,0,74.73c.17,24-11.64,42.87-33.09,52.44-26.21,11.53-62.01,8.65-86.95-7.49v-27.47c24.14,19.04,84.83,28.13,83.65-16.05Zm-31.39-9.81c15.21-.07,25.56-8.4,32.64-22.29-3.92-7.61-8.62-13.23-14.09-16.86-11.84-8.02-32.98-8.03-41.02,4.99-9.21,17.05,2.73,35.22,22.47,34.16Z"/><path id="h" d="m732,146.39c-46.62,1.29-81.21-39.45-56.36-82.13,16.63-25.95,59.25-33.03,84.99-17.66,19.17,11.95,27.05,32.98,27.02,56.45h-90.6v-21.94h70.09l-11.95,7.67c-.84-9.37-4.53-17.23-12.39-21.58-11.4-5.95-29.01-2.72-35.23,9.19-4.88,8.18-3.99,21.91,1.16,29.43,15.8,21.85,55.59,14.52,76.25,2.59v23.19c-15.21,10.26-33.84,14.83-52.97,14.8Z"/></g></svg>