<?xml version="1.0" encoding="UTF-8"?><svg xmlns="http://www.w3.org/2000/svg" viewBox="0 0 966.61 144.04"><g id="a"><g id="b"><path d="m101.58,86.76s42.42-27.32,42.42-66.59v-10.14h-47.98c-4.67-4.24-15.2-8.75-24.09-9.54C66.6-.38,6.88.2,0,.05v54.59h30c.09-3.9,1.74-7.54,3.85-10.82,2.42-3.51,5.49-5.82,9.71-7.76,8.01-3.55,21.67-3.92,30.04-.84,3.67,1.37,6.44,3.3,8.31,5.79,3.83,5.05,3.69,12.62-.19,17.87-1.86,2.72-5.91,6.23-10.27,9.16C48.54,82.59,22.94,98.85,0,113.43v30.57l72-10.86,72,10.86v-30.14c-12.63-8.09-29.8-19.08-42.32-27.1"/></g></g><g id="c"><g id="d"><path id="e" d="m292.24,0v37.42l-108.44.07,20.92-20.53v127.04h-44.71V.07l132.24-.07Zm-110.55,57.64h104.97v37.42h-104.97v-37.42Z"/><path id="f" d="m387.61,144c-16.95,0-31.8-3-44.55-9-12.75-6-22.67-14.39-29.76-25.16-7.1-10.77-10.64-23.39-10.64-37.84s3.55-27.06,10.64-37.84c7.09-10.77,17.01-19.16,29.76-25.16,12.74-6,27.6-9,44.55-9s31.8,3,44.55,9c12.74,6,22.67,14.39,29.76,25.16,7.09,10.78,10.64,23.39,10.64,37.84s-3.55,27.06-10.64,37.84c-7.1,10.78-17.02,19.17-29.76,25.16-12.75,6-27.6,9-44.55,9Zm0-38.02c8.41,0,15.66-1.38,21.76-4.13,6.09-2.76,10.77-6.67,14.03-11.76,3.26-5.08,4.9-11.11,4.9-18.09s-1.63-13.01-4.9-18.09c-3.27-5.08-7.94-9-14.03-11.76-6.09-2.76-13.34-4.13-21.76-4.13s-15.67,1.38-21.76,4.13c-6.09,2.76-10.77,6.68-14.03,11.76-3.27,5.08-4.9,11.11-4.9,18.09s1.63,13.01,4.9,18.09c3.26,5.08,7.94,9,14.03,11.76,6.09,2.76,13.34,4.13,21.76,4.13Z"/><path id="g" d="m519.34,62.25h50.09c5.61,0,9.97-1.28,13.1-3.84,3.12-2.56,4.68-6.27,4.68-11.13s-1.56-8.57-4.68-11.13c-3.13-2.56-7.49-3.84-13.1-3.84h-56.4l20.07-20.73v132.41h-44.55V.07h87.56c11.09,0,20.84,1.98,29.25,5.95,8.41,3.97,14.98,9.47,19.69,16.5,4.71,7.04,7.07,15.29,7.07,24.76s-2.36,17.37-7.07,24.47c-4.72,7.1-11.28,12.6-19.69,16.5-8.41,3.9-18.16,5.85-29.25,5.85h-56.78v-31.86Zm19.12,14.39h49.52l52.67,67.39h-51.04l-51.14-67.39Z"/><path id="h" d="m800.47,81.4c-.38,8.08-2.08,15.89-5.12,23.42-3.03,7.53-7.45,14.27-13.26,20.2-5.81,5.94-13.14,10.59-21.98,13.96-8.84,3.37-19.2,5.05-31.07,5.05-11.12,0-21.54-1.56-31.26-4.68-9.73-3.12-18.32-7.71-25.77-13.78-7.45-6.06-13.3-13.56-17.53-22.5-4.23-8.94-6.35-19.29-6.35-31.04s2.11-22.1,6.35-31.04c4.23-8.94,10.17-16.44,17.81-22.5,7.64-6.06,16.48-10.65,26.53-13.78,10.04-3.12,20.87-4.68,32.49-4.68,16.04,0,29.84,2.33,41.4,6.98,11.56,4.66,20.87,11.08,27.95,19.29,7.07,8.21,11.62,17.63,13.64,28.29h-44.34c-1.14-4.04-3.51-7.5-7.1-10.38-3.6-2.88-8.05-5.08-13.36-6.61-5.31-1.53-11.25-2.3-17.81-2.3-8.08,0-15.06,1.35-20.93,4.04-5.87,2.7-10.39,6.74-13.55,12.12-3.16,5.39-4.74,12.25-4.74,20.57s1.74,15.31,5.21,20.94c3.47,5.63,8.46,9.86,14.97,12.67,6.51,2.82,14.18,4.22,23.02,4.22s16.2-1.1,22.83-3.31,11.97-5.45,16.01-9.74c4.04-4.28,6.44-9.61,7.2-15.98l18.76.55Zm-61.39,16.71v-28.35h76.55l4.07,74.27h-30.88l-10.51-56.76,8.15,10.84h-47.37Z"/><path id="i" d="m884.78,72l-8.99,55.65-17.4-19.38h108.21v35.69h-134.97l10.71-71.96L831.63.04h134.97v35.69h-108.21l17.4-19.38,8.99,55.65Zm76.09-15.74v31.47h-106.49v-31.47h106.49Z"/></g></g></svg>